<?xml version="1.0" encoding="UTF-8"?>
<svg enable-background="new 0 0 457 80" viewBox="0 0 457 80" xmlns="http://www.w3.org/2000/svg">
    <path d="m420.8 40 24.3 40h-445.2v-80h445.3z" fill="#006ed2"/>
    <path d="m431.7 40 24.2 40h-5.3l-24.3-40 24.3-40h5.3z" fill="#006ed2"/>
    <g fill="#fff">
        <path clip-rule="evenodd"
              d="m216.4 32.8-.9.2c-2.2-6.1-5.1-9.1-9.7-9.1h-2.1v27.1c0 1.7 1.3 2.9 5.5 2.9v.7h-17.5v-.7c4.2-.2 5.5-1.2 5.5-2.9v-27.2h-2.1c-4.5 0-7.7 3-9.7 9.1l-.9-.2.9-10h30.1z"
              fill-rule="evenodd"/>
        <path clip-rule="evenodd"
              d="m183.8 23.5c-4.6.7-5.4 2.4-5.4 6.8v25h-2.5l-21-27.1h-.1v18.7c0 4.4 1 6.3 5.9 6.9v.7h-13.1v-.7c4.6-.7 5.7-2.6 5.7-6.9v-18.4c0-2.7-1.4-4.9-5.7-5v-.7h11.5l17.7 23h.1v-15.5c0-4.4-1.3-6.2-6.2-6.8v-.7h13.1z"
              fill-rule="evenodd"/>
        <path clip-rule="evenodd"
              d="m47.3 32.8-.9.2c-2.2-6.1-5.1-9.1-9.7-9.1h-2.1v27.1c0 1.7 1.3 2.9 5.5 2.9v.7h-17.5v-.7c4.2-.2 5.5-1.2 5.5-2.9v-27.2h-2.1c-4.5 0-7.7 3-9.7 9.1l-.9-.2.9-10h30.1z"
              fill-rule="evenodd"/>
        <path d="m243.1 38.8c0-11-3.4-15.7-9.3-15.7s-9.3 4.8-9.3 15.7c0 11.1 3.4 15.7 9.3 15.7 5.8-.1 9.3-4.7 9.3-15.7zm6.9-.2c0 10-7.6 16.8-16.3 16.8-9 0-16.3-6.5-16.3-16.6 0-10 7.5-16.7 16.3-16.7 9 0 16.3 6.5 16.3 16.5"/>
        <path d="m140.5 38.8c0-11-3.4-15.7-9.3-15.7s-9.3 4.7-9.3 15.6c0 11.1 3.4 15.7 9.3 15.7 5.8 0 9.3-4.6 9.3-15.6zm6.9-.2c0 10-7.6 16.8-16.3 16.8-9 0-16.3-6.5-16.3-16.6 0-10 7.5-16.7 16.3-16.7 9 0 16.3 6.5 16.3 16.5"/>
        <path d="m104.7 30.9c0-4.2-2.2-7.1-8.3-7.1h-3.1v14.7h3c5.7 0 8.4-2.9 8.4-7.6zm14.4 23.6h-11.2c-1.3-1.3-3.3-3.6-5.5-7.1-4.5-7.1-5.3-7.9-8-7.9h-1v11.4c0 1.8.7 2.8 4.9 2.9v.7h-16.7v-.7c4.3-.1 5-1.2 5-2.9v-24.5c0-1.7-.6-2.8-5-2.9v-.7h15.7c9 0 14 2.9 14 8 0 3.8-3.6 7.3-10.3 8.4v.1c2.6.5 4.4 1.8 6.8 5.1l2.8 3.7c3 4 5 5.7 8.4 5.7z"/>
        <path d="m73.9 38.8c0-11-3.4-15.7-9.3-15.7s-9.3 4.8-9.3 15.7c0 11.1 3.4 15.7 9.3 15.7 5.8-.1 9.3-4.7 9.3-15.7zm6.9-.2c0 10-7.6 16.8-16.3 16.8-9 0-16.3-6.5-16.3-16.6 0-10 7.5-16.7 16.3-16.7 9 0 16.3 6.5 16.3 16.5"/>
        <path clip-rule="evenodd"
              d="m327.3 32.8-.9.2c-2.2-6.1-5.1-9.1-9.7-9.1h-2.1v27.1c0 1.7.9 2.9 5.2 2.9v.7h-17.2v-.7c4.2-.2 5.5-1.2 5.5-2.9v-27.2h-2.1c-4.5 0-7.7 3-9.7 9.1l-.9-.2.9-10h30.1z"
              fill-rule="evenodd"/>
        <path clip-rule="evenodd"
              d="m296.2 45.6c0 5.8-5 9.8-14 9.8-4.9 0-8.4-1.3-10.7-2.4l-1.6 1.9h-.5l-1-10.6.8-.2c3.1 7.1 6.3 10.3 13.1 10.3 5.1 0 8.5-2.9 8.5-6.4 0-3.4-1.8-5-8.1-7.1l-4.5-1.5c-4.8-1.6-8.7-4.2-8.7-9.2 0-5.6 5.1-8.2 12.2-8.2 4.3 0 7.5 1.3 9.3 2.4l1.1-1.7h.6l.9 10.1-.9.2c-2.1-6.3-5.3-9.9-11-9.9-4.3 0-6.7 2.3-6.7 5 0 3.2 2.4 4.4 6.7 5.7l5.3 1.7c5.2 1.8 9.2 4.6 9.2 10.1"
              fill-rule="evenodd"/>
        <path d="m381.1 30.9c0-4.2-2.2-7.1-8.3-7.1h-3.1v14.7h3c5.7 0 8.4-2.9 8.4-7.6zm14.4 23.6h-11.2c-1.3-1.3-3.3-3.6-5.5-7.1-4.5-7.1-5.3-7.9-8-7.9h-1v11.4c0 1.8.7 2.8 4.9 2.9v.7h-16.5v-.7c4.3-.1 5-1.2 5-2.9v-24.5c0-1.7-.6-2.8-5-2.9v-.7h15.7c9 0 14 2.9 14 8 0 3.8-3.6 7.3-10.3 8.4v.1c2.6.5 4.4 1.8 6.8 5.1l2.8 3.7c3 4 5 5.7 8.4 5.7z"/>
        <path d="m342.7 41.8-5.1-14h-.2l-5.3 14zm15.5 12.7h-16.5v-.7c3.4-.2 4.5-.7 4.5-1.9 0-.5-.2-1-.4-1.7l-2.8-7.4h-11.3l-1.4 3.6c-.8 1.9-1.1 3.4-1.1 4.4 0 1.9 1.2 2.7 4 3.1v.7h-11v-.7c3.2-.6 4.9-2.5 6.9-7.4l9.7-24.6h3.2l10.5 27.7c1.1 2.8 2 3.8 5.7 4.3z"/>
    </g>
</svg>