<svg width="166" height="27" viewBox="0 0 166 27" fill="none" xmlns="http://www.w3.org/2000/svg">
<path d="M37.8602 1.03V8.43H37.2602C35.6602 3.63 34.2602 1.73 32.4602 1.73H32.0602V22.73C32.0602 24.23 32.5602 25.23 34.7602 25.23V25.73H25.5602V25.23C27.6602 25.13 28.2602 24.23 28.2602 22.73V1.73H27.8602C26.0602 1.73 24.7602 3.63 23.0602 8.43H22.4602V1.03H37.8602ZM38.8002 25.3C40.8002 25.2 41.2002 24.3 41.2002 22.8V3.9C41.2002 2.4 40.8002 1.5 38.8002 1.4V1.03H47.2002V1.43C45.6002 1.53 45.0002 2.33 45.0002 3.93V12.53H51.5002V3.9C51.5002 2.3 50.9002 1.5 49.3002 1.4V1.03H57.7002V1.43C55.7002 1.53 55.3002 2.43 55.3002 3.93V22.83C55.3002 24.33 55.7002 25.23 57.7002 25.33V25.83H49.3002V25.33C50.9002 25.23 51.5002 24.43 51.5002 22.83V13.33H45.0002V22.83C45.0002 24.43 45.6002 25.23 47.2002 25.33V25.83H38.8002V25.3ZM81.2002 17.4H81.8002C84.2002 23.4 85.8002 25.4 87.9002 25.4C90.0002 25.4 91.2002 23.3 91.2002 21.1C91.2002 17.4 88.8002 16 86.4002 14.6C84.0002 13.2 81.5002 11.8 81.5002 7.8C81.5002 3.2 84.5002 0.3 88.0002 0.3C89.3611 0.319667 90.6978 0.662414 91.9002 1.3L92.6002 0H93.1002V8.1H92.5002C90.4002 2.3 89.1002 0.9 87.5002 0.9C85.9002 0.9 84.4002 2.1 84.4002 5.1C84.4002 8.4 86.6002 9.5 88.9002 10.8C91.2002 12.1 93.9002 13.7 93.9002 18C93.9002 21.7 91.8002 26 87.4002 26C85.7274 25.9303 84.1041 25.4122 82.7002 24.5L81.7002 26.2H81.2002V17.4ZM110.3 1.03V8.43H109.7C108.1 3.63 106.7 1.73 104.9 1.73H104.5V22.73C104.5 24.23 105 25.23 107.2 25.23V25.73H98.1002V25.23C100.2 25.13 100.8 24.23 100.8 22.73V1.73H100.4C98.6002 1.73 97.3002 3.63 95.6002 8.43H95.1002V1.03H110.3ZM141 19.8C140.8 16 139.8 13.7 136.2 13.4V13.3C140 12.5 141.3 10.1 141.3 7C141.3 3.6 139.6 1 134.6 1H126.1V1.4C128.1 1.5 128.5 2.4 128.5 3.9V22.7C128.5 24.2 127.8 25.2 126.4 25.2C125 25.2 124.3 24.2 123.6 21.5L118.6 0.7H116.2L111.7 19.3C110.5 23.9 109.8 24.5 108.2 25.2V25.7H114.2V25.2C112 24.7 111.4 23.9 112.6 19.1L113.1 17H118.7L119.9 22.2C120.4 24.4 120.1 25.1 117.8 25.2V25.7H134.6V25.2C133 25.1 132.4 24.3 132.4 22.7V13.7H133.6C136.3 13.7 136.8 14.4 137.1 18L137.3 21.4C137.5 24.7 138 26 141.2 26C142.088 25.97 142.965 25.8013 143.8 25.5V25.03C141.7 25.1 141.1 23.6 141 19.8V19.8ZM113.1 16.3L115.7 5.2H115.8L118.4 16.3H113.1ZM133.8 13H132.3V1.7H133.5C136.5 1.7 137.3 3.8 137.3 7.1C137.3 10.6 136.7 13.03 133.8 13.03V13ZM58.8002 25.3C60.8002 25.2 61.2002 24.3 61.2002 22.8V3.9C61.2002 2.4 60.8002 1.4 58.8002 1.4V1.03H73.3002V8.43H72.7002C71.2002 4.53 70.6002 1.73 67.0002 1.73H64.8602V12.73H65.5602C67.3602 12.73 68.4602 11.83 69.2602 7.93H69.8602V18.13H69.2602C68.4602 14.23 67.3602 13.33 65.5602 13.33H64.8602V25.03H67.0602C70.6602 25.03 71.9602 22.53 73.3602 17.33H73.9602L73.8602 25.73H58.7602V25.33L58.8002 25.3Z" fill="black"/>
<path d="M17.3 0.900024H0L5.6 13.4L0 25.7H17.3V0.900024ZM148.1 25.7H165.4L159.8 13.4L165.4 0.900024H148.1V25.7Z" fill="#006ED2"/>
</svg>
