<?xml version="1.0" encoding="utf-8"?>
<!-- Generator: Adobe Illustrator 24.1.2, SVG Export Plug-In . SVG Version: 6.00 Build 0)  -->
<svg version="1.1" id="Layer_1" xmlns="http://www.w3.org/2000/svg" xmlns:xlink="http://www.w3.org/1999/xlink" x="0px" y="0px"
	 viewBox="0 0 300 60" style="enable-background:new 0 0 300 60;" xml:space="preserve">
<style type="text/css">
	.st0{fill:#EE0000;}
</style>
<path d="M187.2,23.8h4.6c2.7,0,4.3,1.6,4.3,3.9l0,0c0,2.6-2,3.9-4.5,3.9h-1.9V35h-2.5C187.2,35,187.2,23.8,187.2,23.8z M191.6,29.5
	c1.2,0,2-0.7,2-1.7l0,0c0-1.1-0.8-1.7-2-1.7h-1.9v3.4H191.6z"/>
<path d="M196.8,30.8L196.8,30.8c0-2.5,2-4.5,4.7-4.5c2.7,0,4.6,2,4.6,4.4l0,0c0,2.5-2,4.5-4.7,4.5C198.8,35.2,196.8,33.2,196.8,30.8
	z M203.7,30.8L203.7,30.8c0-1.3-0.9-2.4-2.3-2.4s-2.2,1.1-2.2,2.3l0,0c0,1.3,0.9,2.4,2.3,2.4C202.9,33.1,203.7,32,203.7,30.8z"/>
<path d="M207.5,26.4h2.4v1.2c0.6-0.8,1.4-1.4,2.7-1.4c2,0,3.9,1.6,3.9,4.4l0,0c0,2.9-1.9,4.4-3.9,4.4c-1.3,0-2.1-0.6-2.7-1.3v3.7
	h-2.4V26.4z M214.1,30.7L214.1,30.7c0-1.5-1-2.4-2.1-2.4c-1.1,0-2.1,0.9-2.1,2.4l0,0c0,1.4,0.9,2.4,2.1,2.4
	C213.1,33.1,214.1,32.2,214.1,30.7z"/>
<path d="M217.9,32v-5.6h2.4v4.8c0,1.2,0.5,1.7,1.5,1.7c0.9,0,1.5-0.6,1.5-1.7v-4.8h2.4V35h-2.4v-1.2c-0.6,0.7-1.3,1.4-2.5,1.4
	C219,35.2,217.9,34,217.9,32z"/>
<path d="M227.4,23.3h2.4V35h-2.4V23.3z"/>
<path d="M231.3,32.5L231.3,32.5c0-1.9,1.4-2.8,3.5-2.8c0.9,0,1.5,0.1,2.1,0.4V30c0-1-0.6-1.6-1.8-1.6c-0.9,0-1.6,0.2-2.4,0.5
	l-0.6-1.9c0.9-0.4,1.9-0.7,3.3-0.7c1.3,0,2.3,0.4,2.9,1c0.6,0.6,0.9,1.6,0.9,2.7v5h-2.4v-0.9c-0.6,0.7-1.4,1.1-2.6,1.1
	C232.7,35.2,231.3,34.2,231.3,32.5z M236.9,32v-0.4c-0.4-0.2-1-0.3-1.6-0.3c-1,0-1.7,0.4-1.7,1.2l0,0c0,0.7,0.5,1,1.3,1
	C236.1,33.5,236.9,32.9,236.9,32z"/>
<path d="M241,26.4h2.4v1.7c0.5-1.2,1.3-2,2.7-1.9v2.5H246c-1.6,0-2.6,1-2.6,3V35H241V26.4z"/>
<path d="M252.7,23.8h2.3l5.2,6.9v-6.9h2.4V35h-2.1l-5.4-7.1V35h-2.4V23.8z"/>
<path d="M264.1,30.8L264.1,30.8c0-2.5,2-4.5,4.7-4.5c2.7,0,4.6,2,4.6,4.4l0,0c0,2.5-2,4.5-4.7,4.5C266,35.2,264.1,33.2,264.1,30.8z
	 M270.9,30.8L270.9,30.8c0-1.3-0.9-2.4-2.3-2.4c-1.4,0-2.2,1.1-2.2,2.3l0,0c0,1.3,0.9,2.4,2.3,2.4C270.1,33.1,270.9,32,270.9,30.8z"
	/>
<path d="M273.7,26.4h2.5l1.4,5.2l1.6-5.2h2.1l1.6,5.2l1.4-5.2h2.4L284,35h-2.2l-1.6-5.3l-1.7,5.3h-2.2L273.7,26.4z"/>
<g>
	<circle class="st0" cx="23.2" cy="29.3" r="3.5"/>
	<path class="st0" d="M19.2,32.8c-1.9,0-3.5-1.5-3.5-3.5c0-1.9,1.6-3.5,3.5-3.5L19.2,32.8z"/>
	<path class="st0" d="M27.2,36.6l0-3.3l3.3,0C30.5,35.2,29,36.6,27.2,36.6"/>
	<path class="st0" d="M19.2,22.1v3.3l-3.3,0C15.9,23.5,17.4,22.1,19.2,22.1"/>
	<path class="st0" d="M19.2,36.6v-3.3l-3.3,0C15.9,35.2,17.4,36.6,19.2,36.6"/>
	<path class="st0" d="M31.2,32.3l0-5.9c1,0.6,1.7,1.7,1.7,3C32.9,30.6,32.2,31.7,31.2,32.3"/>
	<path class="st0" d="M20.2,21.3l6,0c-0.6-1-1.7-1.7-3-1.7C21.9,19.7,20.8,20.3,20.2,21.3"/>
	<path class="st0" d="M26.1,37.3l-6,0c0.6,1,1.7,1.7,3,1.7C24.4,39,25.5,38.3,26.1,37.3"/>
	<path class="st0" d="M26.6,33.3c0,1.9-1.5,3.5-3.5,3.5c-1.9,0-3.5-1.5-3.5-3.5H26.6z"/>
	<path class="st0" d="M27.2,32.8c1.9,0,3.5-1.5,3.5-3.5c0-1.9-1.6-3.5-3.5-3.5V32.8z"/>
	<path class="st0" d="M26.6,25.3c0-1.9-1.5-3.5-3.5-3.5c-1.9,0-3.5,1.6-3.5,3.5H26.6z"/>
	<path class="st0" d="M15.2,32.3l0-5.9c-1,0.6-1.7,1.7-1.7,3C13.5,30.6,14.2,31.7,15.2,32.3"/>
	<path class="st0" d="M30.5,25.3l-3.3,0l0-3.3C29,22.1,30.5,23.5,30.5,25.3"/>
</g>
<g>
	<path d="M45.9,39c-5.5,0-9.6-4.3-9.6-9.6v-0.1c0-5.3,4-9.7,9.8-9.7c3.5,0,5.6,1.2,7.4,2.9l-2.6,3c-1.4-1.3-2.9-2.1-4.8-2.1
		c-3.2,0-5.4,2.6-5.4,5.8v0.1c0,3.2,2.2,5.9,5.4,5.9c2.1,0,3.5-0.9,4.9-2.2l2.6,2.6C51.6,37.7,49.5,39,45.9,39z"/>
	<path d="M64.1,39h-9.2V19.6h9c4,0,6.4,2,6.4,5v0.1c0,2.2-1.2,3.4-2.5,4.2c2.2,0.9,3.6,2.2,3.6,4.8v0.1C71.4,37.3,68.5,39,64.1,39z
		 M66.1,25.4c0-1.3-1-2-2.8-2h-4.2v4.1H63C64.9,27.5,66.1,26.9,66.1,25.4L66.1,25.4z M67.1,33.1c0-1.3-1-2.1-3.2-2.1h-4.9v4.3h5.1
		C66,35.3,67.1,34.6,67.1,33.1L67.1,33.1z"/>
	<path d="M82.2,39c-5.5,0-9.6-4.3-9.6-9.6v-0.1c0-5.3,4-9.7,9.8-9.7c3.5,0,5.6,1.2,7.4,2.9l-2.6,3c-1.4-1.3-2.9-2.1-4.8-2.1
		c-3.2,0-5.4,2.6-5.4,5.8v0.1c0,3.2,2.2,5.9,5.4,5.9c2.1,0,3.5-0.9,4.9-2.2l2.6,2.6C87.9,37.7,85.8,39,82.2,39z"/>
</g>
<g>
	<path d="M111.3,39H109l-2.3-5.1H96.3L94,39h-2.2l8.8-19.4h2L111.3,39z M101.5,22.2L97.1,32h8.8L101.5,22.2z"/>
	<path d="M127.4,39l-5.6-7.5h-5.5V39h-2.2V19.6h8.3c4.3,0,7,2.3,7,5.8c0,3.2-2.2,5.1-5.3,5.7l6,7.9H127.4z M122.2,21.7h-6v7.9h6
		c2.9,0,5-1.5,5-4C127.2,23.1,125.3,21.7,122.2,21.7z"/>
	<path d="M140,39h-2.2V21.7h-6.5v-2h15.2v2H140V39z"/>
	<path d="M155.7,28.3c4.2,0.9,6.1,2.4,6.1,5.4c0,3.3-2.7,5.4-6.4,5.4c-3,0-5.4-1-7.7-3l1.3-1.6c2,1.8,3.8,2.7,6.5,2.7
		c2.5,0,4.2-1.3,4.2-3.2c0-1.8-0.9-2.8-4.9-3.6c-4.3-0.9-6.3-2.3-6.3-5.5c0-3,2.6-5.2,6.2-5.2c2.7,0,4.7,0.8,6.6,2.3l-1.2,1.6
		c-1.7-1.4-3.5-2-5.4-2c-2.4,0-4,1.3-4,3.1C150.6,26.4,151.5,27.4,155.7,28.3z"/>
</g>
</svg>
